<?xml version="1.0" encoding="UTF-8" standalone="no" ?>
<!DOCTYPE svg PUBLIC "-//W3C//DTD SVG 1.1//EN" "http://www.w3.org/Graphics/SVG/1.1/DTD/svg11.dtd">
<svg xmlns="http://www.w3.org/2000/svg" xmlns:xlink="http://www.w3.org/1999/xlink" version="1.1" width="1280" height="1024" viewBox="0 0 1280 1024" xml:space="preserve">
<desc>Created with Fabric.js 5.3.0</desc>
<defs>
</defs>
<g transform="matrix(1 0 0 1 640 512)" id="background-logo"  >
<rect style="stroke: none; stroke-width: 0; stroke-dasharray: none; stroke-linecap: butt; stroke-dashoffset: 0; stroke-linejoin: miter; stroke-miterlimit: 4; fill: rgb(253,252,252); fill-rule: nonzero; opacity: 1;"  paint-order="stroke"  x="-640" y="-512" rx="0" ry="0" width="1280" height="1024" />
</g>
<g transform="matrix(1.9211538461538462 0 0 1.9211538461538462 640 389.67147567760327)" id="logo-logo"  >
<g style=""  paint-order="stroke"   >
		<g transform="matrix(1.0660404911339014 0 0 -1.0660404911339014 0 0)"  >
<linearGradient id="SVGID_2_323420" gradientUnits="userSpaceOnUse" gradientTransform="matrix(-0.0000072 163.90698 163.90698 0.0000072 163.50098 40.988281)"  x1="0" y1="0" x2="1" y2="0">
<stop offset="0%" style="stop-color:rgb(205,32,41);stop-opacity: 1"/>
<stop offset="100%" style="stop-color:rgb(145,49,29);stop-opacity: 1"/>
</linearGradient>
<path style="stroke: none; stroke-width: 1; stroke-dasharray: none; stroke-linecap: butt; stroke-dashoffset: 0; stroke-linejoin: miter; stroke-miterlimit: 4; fill: url(#SVGID_2_323420); fill-rule: nonzero; opacity: 1;"  paint-order="stroke"  transform=" translate(-163.5005, -129.2655)" d="M 199.952 184.46 C 211.383 160.169 179.932 120.034 165.88299999999998 120.034 L 165.88299999999998 120.034 C 165.88299999999998 106.22500000000001 168.7 92.47900000000001 170.40399999999997 85.742 L 170.40399999999997 85.742 C 166.88799999999998 88.589 163.49999999999997 93.08200000000001 163.49999999999997 93.08200000000001 L 163.49999999999997 93.08200000000001 C 163.49999999999997 93.08200000000001 160.11099999999996 88.58900000000001 156.59499999999997 85.742 L 156.59499999999997 85.742 C 158.30099999999996 92.479 161.11799999999997 106.22500000000001 161.11799999999997 120.034 L 161.11799999999997 120.034 C 147.06799999999996 120.034 115.61799999999997 160.169 127.04899999999996 184.46 L 127.04899999999996 184.46 C 135.57599999999996 202.57600000000002 126.70699999999997 215.531 110.15699999999997 215.531 L 110.15699999999997 215.531 C 91.34499999999997 215.531 78.24599999999997 202.315 78.24599999999997 176.71300000000002 L 78.24599999999997 176.71300000000002 C 78.24599999999997 146.23300000000003 103.13199999999996 115.87000000000002 139.20999999999998 94.31600000000002 L 139.20999999999998 94.31600000000002 L 111.58699999999997 100.98400000000002 C 132.236 81.757 152.191 60.051 163.5 43 L 163.5 43 C 174.808 60.051 194.764 81.757 215.412 100.98400000000001 L 215.412 100.98400000000001 L 187.79 94.316 C 223.868 115.87 248.755 146.233 248.755 176.71300000000002 L 248.755 176.71300000000002 C 248.755 202.31500000000003 235.656 215.531 216.841 215.531 L 216.841 215.531 C 200.292 215.531 191.424 202.576 199.952 184.46" stroke-linecap="round" />
</g>
		<g transform="matrix(1.0660404911339014 0 0 -1.0660404911339014 -25.77148828437157 -41.4471212750405)"  >
<linearGradient id="SVGID_3_323421" gradientUnits="userSpaceOnUse" gradientTransform="matrix(-0.0000072 163.9091 163.9091 0.0000072 139.32568 40.986328)"  x1="0" y1="0" x2="1" y2="0">
<stop offset="0%" style="stop-color:rgb(205,32,41);stop-opacity: 1"/>
<stop offset="100%" style="stop-color:rgb(145,49,29);stop-opacity: 1"/>
</linearGradient>
<path style="stroke: none; stroke-width: 1; stroke-dasharray: none; stroke-linecap: butt; stroke-dashoffset: 0; stroke-linejoin: miter; stroke-miterlimit: 4; fill: url(#SVGID_3_323421); fill-rule: nonzero; opacity: 1;"  paint-order="stroke"  transform=" translate(-139.3255380743422, -168.14499999999998)" d="M 142.781 157.183 C 145.372 168.916 140.65300000000002 175.535 137.08100000000002 179.107 L 137.08100000000002 179.107 C 131.26200000000003 169.808 140.014 165.522 142.781 157.183" stroke-linecap="round" />
</g>
		<g transform="matrix(1.0660404911339014 0 0 -1.0660404911339014 25.769984007693097 -41.4471212750405)"  >
<linearGradient id="SVGID_4_323422" gradientUnits="userSpaceOnUse" gradientTransform="matrix(-0.0000072 163.9091 163.9091 0.0000072 187.67383 40.986328)"  x1="0" y1="0" x2="1" y2="0">
<stop offset="0%" style="stop-color:rgb(205,32,41);stop-opacity: 1"/>
<stop offset="100%" style="stop-color:rgb(145,49,29);stop-opacity: 1"/>
</linearGradient>
<path style="stroke: none; stroke-width: 1; stroke-dasharray: none; stroke-linecap: butt; stroke-dashoffset: 0; stroke-linejoin: miter; stroke-miterlimit: 4; fill: url(#SVGID_4_323422); fill-rule: nonzero; opacity: 1;"  paint-order="stroke"  transform=" translate(-187.67405083790737, -168.14499999999998)" d="M 184.217 157.183 C 186.98700000000002 165.522 195.738 169.808 189.919 179.107 L 189.919 179.107 C 186.348 175.535 181.62800000000001 168.916 184.217 157.183" stroke-linecap="round" />
</g>
</g>
</g>
<g transform="matrix(1.9211538461538462 0 0 1.9211538461538462 640.1152692307694 665.3628082755787)" id="text-logo"  >
<g style=""  paint-order="stroke"   >
		<g transform="matrix(1 0 0 1 0 0)" id="text-logo-path-0"  >
<path style="stroke: none; stroke-width: 0; stroke-dasharray: none; stroke-linecap: butt; stroke-dashoffset: 0; stroke-linejoin: miter; stroke-miterlimit: 4; fill: rgb(145,49,29); fill-rule: nonzero; opacity: 1;"  paint-order="stroke"  transform=" translate(-299.15999999999997, 21)" d="M 1.8 -40.92 L 1.8 -1.08 L 1.02 0 L 9.78 0 L 9 -1.08 L 9 -12.66 L 16.38 -16.56 C 21.12 -19.08 23.4 -23.1 23.4 -28.32 L 23.4 -31.2 C 23.4 -37.86 19.26 -42 12.6 -42 L 1.02 -42 Z M 9 -20.76 L 9 -34.8 L 12.6 -34.8 C 15.78 -34.8 16.2 -34.38 16.2 -31.2 L 16.2 -28.32 C 16.2 -25.32 15.6 -24.3 13.02 -22.92 Z M 46.38 -19.08 L 46.38 -1.08 L 45.6 0 L 54.36 0 L 53.58 -1.08 L 53.58 -19.08 L 60.42 -40.92 L 61.56 -42 L 52.8 -42 L 53.22 -40.92 L 49.98 -30.6 L 46.74 -40.92 L 47.16 -42 L 38.4 -42 L 39.54 -40.92 Z M 98.16 -42 L 76.56 -42 L 76.56 -34.02 L 77.64 -34.8 L 83.76 -34.8 L 83.76 -1.08 L 82.98 0 L 91.74 0 L 90.96 -1.08 L 90.96 -34.8 L 97.08 -34.8 L 98.16 -34.02 Z M 114.96 -40.92 L 114.96 -1.08 L 114.18 0 L 122.94 0 L 122.16 -1.08 L 122.16 -13.08 L 129.36 -16.92 L 129.36 -1.08 L 128.58 0 L 137.34 0 L 136.56 -1.08 L 136.56 -40.92 L 137.34 -42 L 128.58 -42 L 129.36 -40.92 L 129.36 -24.12 L 122.16 -20.28 L 122.16 -40.92 L 122.94 -42 L 114.18 -42 Z M 153.36 -31.8 L 153.36 -10.2 C 153.36 -4.26 158.22 0.6 164.16 0.6 C 170.1 0.6 174.96 -4.26 174.96 -10.2 L 174.96 -31.8 C 174.96 -37.74 170.1 -42.6 164.16 -42.6 C 158.22 -42.6 153.36 -37.74 153.36 -31.8 Z M 160.56 -10.2 L 160.56 -31.8 C 160.56 -34.26 161.7 -35.4 164.16 -35.4 C 166.62 -35.4 167.76 -34.26 167.76 -31.8 L 167.76 -10.2 C 167.76 -7.74 166.62 -6.6 164.16 -6.6 C 161.7 -6.6 160.56 -7.74 160.56 -10.2 Z M 191.76 -40.92 L 191.76 -1.08 L 190.98 0 L 199.74 0 L 198.96 -1.08 L 198.96 -21 L 206.16 0 L 214.14 0 L 213.36 -1.08 L 213.36 -40.92 L 214.14 -42 L 205.38 -42 L 206.16 -40.92 L 206.16 -21 L 198.96 -42 L 190.98 -42 Z M 255.36 -31.8 L 255.36 -10.2 C 255.36 -4.26 260.22 0.6 266.16 0.6 C 272.1 0.6 276.96 -4.26 276.96 -10.2 L 276.96 -15.6 L 269.76 -12 L 269.76 -10.2 C 269.76 -7.74 268.62 -6.6 266.16 -6.6 C 263.7 -6.6 262.56 -7.74 262.56 -10.2 L 262.56 -31.8 C 262.56 -34.26 263.7 -35.4 266.16 -35.4 C 268.62 -35.4 269.76 -34.26 269.76 -31.8 L 269.76 -28.2 L 276.96 -31.8 C 276.96 -37.74 272.1 -42.6 266.16 -42.6 C 260.22 -42.6 255.36 -37.74 255.36 -31.8 Z M 293.76 -31.8 L 293.76 -10.2 C 293.76 -4.26 298.62 0.6 304.56 0.6 C 310.5 0.6 315.36 -4.26 315.36 -10.2 L 315.36 -31.8 C 315.36 -37.74 310.5 -42.6 304.56 -42.6 C 298.62 -42.6 293.76 -37.74 293.76 -31.8 Z M 300.96 -10.2 L 300.96 -31.8 C 300.96 -34.26 302.1 -35.4 304.56 -35.4 C 307.02 -35.4 308.16 -34.26 308.16 -31.8 L 308.16 -10.2 C 308.16 -7.74 307.02 -6.6 304.56 -6.6 C 302.1 -6.6 300.96 -7.74 300.96 -10.2 Z M 332.16 -40.92 L 332.16 -1.08 L 331.38 0 L 340.14 0 L 339.36 -1.08 L 339.36 -12.36 L 342.36 0 L 349.56 0 L 352.56 -12.36 L 352.56 -1.08 L 351.78 0 L 360.54 0 L 359.76 -1.08 L 359.76 -40.92 L 360.54 -42 L 352.56 -42 L 345.96 -14.82 L 339.36 -42 L 331.38 -42 Z M 376.56 -40.92 L 376.56 -1.08 L 375.78 0 L 384.54 0 L 383.76 -1.08 L 383.76 -12.36 L 386.76 0 L 393.96 0 L 396.96 -12.36 L 396.96 -1.08 L 396.18 0 L 404.94 0 L 404.16 -1.08 L 404.16 -40.92 L 404.94 -42 L 396.96 -42 L 390.36 -14.82 L 383.76 -42 L 375.78 -42 Z M 443.7 -1.08 L 435.78 -40.92 L 436.32 -42 L 427.56 -42 L 428.1 -40.92 L 420.18 -1.08 L 419.16 0 L 427.92 0 L 427.38 -1.08 L 428.22 -5.34 L 434.94 -8.88 L 436.5 -1.08 L 435.96 0 L 444.72 0 Z M 429.84 -13.38 L 431.94 -23.94 L 433.62 -15.42 Z M 459.72 -40.92 L 459.72 -1.08 L 458.94 0 L 467.7 0 L 466.92 -1.08 L 466.92 -21 L 474.12 0 L 482.1 0 L 481.32 -1.08 L 481.32 -40.92 L 482.1 -42 L 473.34 -42 L 474.12 -40.92 L 474.12 -21 L 466.92 -42 L 458.94 -42 Z M 498.12 -40.92 L 498.12 -1.08 L 497.34 0 L 508.92 0 C 514.86 0 519.72 -4.86 519.72 -10.8 L 519.72 -31.2 C 519.72 -37.14 514.86 -42 508.92 -42 L 497.34 -42 Z M 505.32 -7.2 L 505.32 -34.8 L 508.92 -34.8 C 511.38 -34.8 512.52 -33.66 512.52 -31.2 L 512.52 -10.8 C 512.52 -8.34 511.38 -7.2 508.92 -7.2 Z M 536.52 -40.92 L 536.52 -1.08 L 535.74 0 L 558.12 0 L 558.12 -14.88 L 550.92 -11.04 L 550.92 -7.2 L 543.72 -7.2 L 543.72 -13.08 L 550.92 -16.92 L 550.92 -24.12 L 543.72 -20.28 L 543.72 -34.8 L 550.92 -34.8 L 550.92 -30.96 L 558.12 -34.8 L 558.12 -42 L 535.74 -42 Z M 574.92 -40.92 L 574.92 -1.08 L 574.14 0 L 582.9 0 L 582.12 -1.08 L 582.12 -12.66 L 584.88 -14.1 L 588.96 -1.08 L 588.54 0 L 597.3 0 L 596.16 -1.08 L 591.06 -17.46 C 594.72 -20.04 596.52 -23.7 596.52 -28.32 L 596.52 -31.2 C 596.52 -37.86 592.38 -42 585.72 -42 L 574.14 -42 Z M 582.12 -20.76 L 582.12 -34.8 L 585.72 -34.8 C 588.9 -34.8 589.32 -34.38 589.32 -31.2 L 589.32 -28.32 C 589.32 -25.32 588.72 -24.3 586.14 -22.92 Z" stroke-linecap="round" />
</g>
</g>
</g>
<g transform="matrix(1.9211538461538462 0 0 1.9211538461538462 640.3592557692306 767.351706894022)" id="tagline-4fabd750-f5b0-424b-b6a0-35001d2d83b9-logo"  >
<g style=""  paint-order="stroke"   >
		<g transform="matrix(1 0 0 1 0 0)" id="tagline-4fabd750-f5b0-424b-b6a0-35001d2d83b9-logo-path-0"  >
<path style="stroke: none; stroke-width: 0; stroke-dasharray: none; stroke-linecap: butt; stroke-dashoffset: 0; stroke-linejoin: miter; stroke-miterlimit: 4; fill: rgb(200,34,40); fill-rule: nonzero; opacity: 1;"  paint-order="stroke"  transform=" translate(-157.18, 11.899999999999999)" d="M 12.68 -23.8 L 1.12 -23.8 L 1.12 -20.4 L 5.2 -20.4 L 5.2 0 L 8.6 0 L 8.6 -20.4 L 12.68 -20.4 Z M 34.31 -23.8 L 29.21 0 L 32.61 0 L 33.56 -4.42 L 38.45 -4.42 L 39.41 0 L 42.81 0 L 37.71 -23.8 Z M 34.27 -7.82 L 36.01 -15.88 L 37.74 -7.82 Z M 59.33 -23.8 L 59.33 0 L 62.73 0 L 62.73 -6.94 L 63.78 -9.15 L 67.49 0 L 70.89 0 L 65.65 -12.99 L 70.89 -23.8 L 67.49 -23.8 L 62.73 -13.97 L 62.73 -23.8 Z M 87.41 -23.8 L 87.41 0 L 97.27 0 L 97.27 -3.4 L 90.81 -3.4 L 90.81 -10.2 L 95.23 -10.2 L 95.23 -13.6 L 90.81 -13.6 L 90.81 -20.4 L 97.27 -20.4 L 97.27 -23.8 Z M 146.44 -5.58 L 146.44 -6.8 L 143.04 -6.8 L 143.04 -5.61 C 143.04 -4.32 141.95 -3.23 140.66 -3.23 C 139.33 -3.23 138.28 -4.32 138.28 -5.61 L 138.28 -18.19 C 138.28 -19.48 139.33 -20.57 140.66 -20.57 C 141.95 -20.57 143.04 -19.48 143.04 -18.19 L 143.04 -17 L 146.44 -17 L 146.44 -18.22 C 146.44 -21.35 143.82 -23.97 140.69 -23.97 C 137.43 -23.97 134.88 -21.35 134.88 -18.22 L 134.88 -5.58 C 134.88 -2.45 137.43 0.17 140.69 0.17 C 143.82 0.17 146.44 -2.45 146.44 -5.58 Z M 171.12 -18.19 L 171.12 -5.61 C 171.12 -4.32 170.03 -3.23 168.74 -3.23 C 167.42 -3.23 166.36 -4.32 166.36 -5.61 L 166.36 -18.19 C 166.36 -19.48 167.42 -20.57 168.74 -20.57 C 170.03 -20.57 171.12 -19.48 171.12 -18.19 Z M 162.96 -5.58 C 162.96 -2.45 165.51 0.17 168.78 0.17 C 171.9 0.17 174.52 -2.45 174.52 -5.58 L 174.52 -18.22 C 174.52 -21.35 171.9 -23.97 168.78 -23.97 C 165.51 -23.97 162.96 -21.35 162.96 -18.22 Z M 191.05 -23.8 L 191.05 0 L 194.45 0 L 194.45 -13.87 L 199.21 0 L 202.61 0 L 202.61 -23.8 L 199.21 -23.8 L 199.21 -9.93 L 194.45 -23.8 Z M 230.69 -23.8 L 219.13 -23.8 L 219.13 -20.4 L 223.21 -20.4 L 223.21 0 L 226.61 0 L 226.61 -20.4 L 230.69 -20.4 Z M 247.21 0 L 250.61 0 L 250.61 -8.5 L 253.03 -8.5 L 253.06 -8.5 L 255.37 0 L 258.77 0 L 256.22 -9.49 C 257.75 -10.54 258.77 -12.27 258.77 -14.25 L 258.77 -18.05 C 258.77 -21.18 256.16 -23.8 253.03 -23.8 L 247.21 -23.8 Z M 250.61 -11.9 L 250.61 -20.4 L 252.99 -20.4 C 254.29 -20.4 255.37 -19.31 255.37 -18.02 L 255.37 -14.28 C 255.37 -12.99 254.29 -11.9 252.99 -11.9 Z M 283.46 -18.19 L 283.46 -5.61 C 283.46 -4.32 282.37 -3.23 281.08 -3.23 C 279.75 -3.23 278.7 -4.32 278.7 -5.61 L 278.7 -18.19 C 278.7 -19.48 279.75 -20.57 281.08 -20.57 C 282.37 -20.57 283.46 -19.48 283.46 -18.19 Z M 275.3 -5.58 C 275.3 -2.45 277.85 0.17 281.11 0.17 C 284.24 0.17 286.86 -2.45 286.86 -5.58 L 286.86 -18.22 C 286.86 -21.35 284.24 -23.97 281.11 -23.97 C 277.85 -23.97 275.3 -21.35 275.3 -18.22 Z M 303.38 -23.8 L 303.38 0 L 313.24 0 L 313.24 -3.4 L 306.78 -3.4 L 306.78 -23.8 Z" stroke-linecap="round" />
</g>
</g>
</g>
</svg>